<?xml version="1.0" standalone="no"?>
<!DOCTYPE svg PUBLIC "-//W3C//DTD SVG 20010904//EN"
 "http://www.w3.org/TR/2001/REC-SVG-20010904/DTD/svg10.dtd">
<svg version="1.0" xmlns="http://www.w3.org/2000/svg"
 width="661.000000pt" height="377.000000pt" viewBox="0 0 661.000000 377.000000"
 preserveAspectRatio="xMidYMid meet">

<g transform="translate(0.000000,377.000000) scale(0.100000,-0.100000)"
fill="#000000" stroke="none">
<path d="M1943 3763 c-13 -2 -23 -11 -23 -19 0 -12 7 -14 33 -9 17 4 34 9 36
11 5 4 -9 24 -17 23 -4 -1 -17 -4 -29 -6z"/>
<path d="M5957 3757 c-4 -12 52 -67 67 -67 15 0 3 29 -22 53 -32 31 -38 32
-45 14z"/>
<path d="M4325 3720 c3 -5 13 -10 21 -10 8 0 12 5 9 10 -3 6 -13 10 -21 10 -8
0 -12 -4 -9 -10z"/>
<path d="M242 3678 c-9 -9 -8 -16 7 -32 11 -12 23 -35 28 -53 7 -28 10 -30 25
-19 14 11 16 19 8 46 -9 32 -36 70 -50 70 -3 0 -11 -5 -18 -12z"/>
<path d="M4265 3670 c3 -5 11 -10 16 -10 6 0 7 5 4 10 -3 6 -11 10 -16 10 -6
0 -7 -4 -4 -10z"/>
<path d="M5861 3636 c-10 -11 -5 -20 24 -42 32 -24 38 -26 51 -12 14 13 12 18
-16 42 -36 30 -43 31 -59 12z"/>
<path d="M662 3593 c2 -10 10 -18 18 -18 22 0 18 29 -3 33 -14 3 -18 -1 -15
-15z"/>
<path d="M5160 3446 c0 -7 11 -21 25 -30 20 -13 25 -14 25 -2 0 7 -11 21 -25
30 -20 13 -25 14 -25 2z"/>
<path d="M0 3380 c0 -5 5 -10 11 -10 5 0 7 5 4 10 -3 6 -8 10 -11 10 -2 0 -4
-4 -4 -10z"/>
<path d="M1680 3341 c-36 -35 -46 -74 -33 -122 5 -21 6 -44 2 -51 -5 -7 -9
-34 -9 -60 0 -35 6 -54 24 -75 32 -37 43 -25 17 18 -22 35 -28 93 -12 104 5 3
21 0 34 -6 35 -16 69 4 65 38 -4 36 -30 50 -67 36 -27 -10 -30 -9 -35 13 -9
33 16 86 47 103 15 8 24 18 21 23 -9 15 -25 9 -54 -21z m59 -140 c17 -11 6
-31 -18 -31 -25 0 -33 11 -20 27 13 15 19 16 38 4z"/>
<path d="M475 3300 c-3 -5 -2 -10 4 -10 5 0 13 5 16 10 3 6 2 10 -4 10 -5 0
-13 -4 -16 -10z"/>
<path d="M4863 3263 c-1 -21 -3 -49 -5 -63 -2 -16 2 -25 14 -28 33 -7 36 114
3 125 -6 2 -11 -14 -12 -34z"/>
<path d="M43 3263 c-13 -9 -23 -22 -23 -30 0 -11 6 -11 30 4 17 9 30 21 30 25
0 15 -16 15 -37 1z"/>
<path d="M5751 3250 c-40 -9 -48 -21 -57 -78 -9 -62 3 -81 44 -70 31 8 32 11
32 58 0 27 4 60 10 74 5 14 8 26 7 25 -1 -1 -17 -5 -36 -9z"/>
<path d="M4982 3233 c2 -10 10 -18 18 -18 8 0 16 8 18 18 2 12 -3 17 -18 17
-15 0 -20 -5 -18 -17z"/>
<path d="M3410 3230 c0 -5 5 -10 11 -10 5 0 7 5 4 10 -3 6 -8 10 -11 10 -2 0
-4 -4 -4 -10z"/>
<path d="M5800 3170 c0 -23 25 -27 33 -6 7 16 -1 26 -20 26 -7 0 -13 -9 -13
-20z"/>
<path d="M2430 3115 c0 -8 7 -15 15 -15 8 0 15 7 15 15 0 8 -7 15 -15 15 -8 0
-15 -7 -15 -15z"/>
<path d="M859 3070 l-24 -19 28 -1 c33 0 62 -14 95 -43 l22 -21 22 21 21 22
-48 30 c-57 36 -84 39 -116 11z"/>
<path d="M4113 3047 c3 -20 1 -39 -4 -42 -12 -8 -12 -55 0 -55 5 0 12 -8 14
-17 3 -10 5 17 6 59 1 48 -3 79 -11 84 -8 5 -9 -3 -5 -29z"/>
<path d="M1275 3050 c-8 -14 3 -30 21 -30 8 0 14 9 14 20 0 21 -24 28 -35 10z"/>
<path d="M6524 3011 c-36 -55 -42 -111 -17 -151 l20 -32 13 48 c9 30 20 48 32
52 10 2 18 12 18 21 0 9 5 22 11 28 9 9 6 19 -10 42 -13 17 -26 31 -32 31 -5
0 -20 -18 -35 -39z"/>
<path d="M712 3023 c2 -10 10 -18 18 -18 22 0 18 29 -3 33 -14 3 -18 -1 -15
-15z"/>
<path d="M757 3013 c-3 -5 -2 -15 3 -22 10 -17 43 -6 38 12 -6 15 -34 22 -41
10z"/>
<path d="M394 2999 c-3 -6 -17 -9 -30 -6 -20 3 -22 2 -13 -9 19 -24 69 -10 69
18 0 12 -18 10 -26 -3z"/>
<path d="M4111 2834 c0 -11 3 -14 6 -6 3 7 2 16 -1 19 -3 4 -6 -2 -5 -13z"/>
<path d="M5080 2756 c0 -14 5 -26 10 -26 6 0 10 9 10 19 0 11 -4 23 -10 26 -6
4 -10 -5 -10 -19z"/>
<path d="M1336 2683 c-12 -12 -6 -33 9 -33 8 0 15 6 15 14 0 17 -14 28 -24 19z"/>
<path d="M30 2646 c0 -10 9 -16 21 -16 24 0 21 23 -4 28 -10 2 -17 -3 -17 -12z"/>
<path d="M6204 2626 c-8 -8 -8 -19 -1 -36 l10 -25 4 23 c7 35 0 53 -13 38z"/>
<path d="M5040 2586 c0 -20 5 -36 10 -36 6 0 10 13 10 29 0 17 -4 33 -10 36
-6 4 -10 -8 -10 -29z"/>
<path d="M921 2439 c0 -15 -3 -42 -6 -60 l-5 -34 11 34 c5 18 8 45 6 60 l-4
26 -2 -26z"/>
<path d="M577 2370 c-3 -11 -2 -20 2 -20 3 0 12 9 19 20 10 16 10 20 -2 20 -7
0 -16 -9 -19 -20z"/>
<path d="M665 2300 c-8 -14 3 -30 21 -30 8 0 14 9 14 20 0 21 -24 28 -35 10z"/>
<path d="M240 2241 c0 -10 51 -22 63 -14 4 2 5 9 2 14 -8 12 -65 12 -65 0z"/>
<path d="M5761 2192 c-13 -25 -14 -79 -2 -86 8 -5 23 94 16 102 -2 2 -8 -5
-14 -16z"/>
<path d="M306 2084 c-10 -25 -7 -34 9 -34 8 0 15 4 15 9 0 5 3 16 6 25 4 10 1
16 -9 16 -8 0 -18 -7 -21 -16z"/>
<path d="M975 2079 c-4 -6 -3 -15 3 -21 6 -6 11 -4 15 6 7 18 -9 31 -18 15z"/>
<path d="M1037 2023 c-4 -3 -7 -11 -7 -17 0 -6 5 -5 12 2 6 6 9 14 7 17 -3 3
-9 2 -12 -2z"/>
<path d="M5557 2006 c5 -27 33 -44 33 -21 0 11 -25 45 -34 45 -2 0 -1 -11 1
-24z"/>
<path d="M5671 1994 c0 -11 3 -14 6 -6 3 7 2 16 -1 19 -3 4 -6 -2 -5 -13z"/>
<path d="M5187 1914 c-3 -3 8 -24 24 -47 37 -52 52 -135 39 -214 -9 -54 -23
-79 -90 -167 -35 -45 -50 -93 -50 -157 0 -69 30 -146 51 -133 5 3 1 20 -8 37
-11 21 -17 55 -17 97 0 71 12 101 75 185 71 95 87 222 40 326 -29 64 -49 87
-64 73z"/>
<path d="M224 1738 c-5 -8 -17 -18 -27 -21 -22 -8 -18 -31 6 -35 10 -2 17 3
17 13 0 9 4 14 8 11 4 -2 14 -1 22 4 13 8 13 12 -1 26 -14 14 -18 14 -25 2z"/>
<path d="M778 1685 c2 -19 6 -35 8 -35 2 0 4 16 4 35 0 19 -4 35 -8 35 -4 0
-6 -16 -4 -35z"/>
<path d="M643 1660 c0 -25 2 -35 4 -22 2 12 2 32 0 45 -2 12 -4 2 -4 -23z"/>
<path d="M4820 1620 c0 -5 5 -10 10 -10 6 0 10 5 10 10 0 6 -4 10 -10 10 -5 0
-10 -4 -10 -10z"/>
<path d="M392 1600 c-8 -13 -8 -20 -2 -20 6 0 13 7 17 15 9 24 -1 27 -15 5z"/>
<path d="M1643 1453 c-18 -6 -16 -30 2 -37 9 -3 18 1 22 10 7 18 -7 33 -24 27z"/>
<path d="M987 1344 c-4 -4 -7 -14 -7 -23 0 -11 3 -12 11 -4 6 6 10 16 7 23 -2
6 -7 8 -11 4z"/>
<path d="M1289 1336 c-36 -11 -43 -36 -10 -36 32 0 81 22 81 36 0 16 -21 16
-71 0z"/>
<path d="M6426 1245 c-3 -8 -1 -15 3 -15 5 0 11 7 15 15 3 8 1 15 -3 15 -5 0
-11 -7 -15 -15z"/>
<path d="M6500 1240 c-8 -16 -8 -18 4 -14 17 6 30 34 16 34 -5 0 -14 -9 -20
-20z"/>
<path d="M950 1149 c0 -14 7 -34 15 -45 14 -18 14 -16 9 16 -8 44 -24 63 -24
29z"/>
<path d="M1605 920 c-3 -5 -2 -10 4 -10 5 0 13 5 16 10 3 6 2 10 -4 10 -5 0
-13 -4 -16 -10z"/>
<path d="M5930 910 c0 -15 5 -20 18 -18 9 2 17 10 17 18 0 8 -8 16 -17 18 -13
2 -18 -3 -18 -18z"/>
<path d="M5801 851 c-26 -21 -32 -32 -27 -48 7 -22 140 -153 154 -153 16 0 76
70 66 78 -5 4 -43 40 -84 79 l-75 72 -34 -28z"/>
<path d="M6411 792 c-25 -35 -26 -48 -6 -55 9 -4 23 6 36 24 19 27 20 32 7 46
-14 13 -18 11 -37 -15z"/>
<path d="M70 798 c0 -17 18 -44 24 -37 8 7 -5 49 -15 49 -5 0 -9 -6 -9 -12z"/>
<path d="M2321 786 c-30 -36 -25 -82 18 -167 46 -91 48 -104 26 -156 -10 -24
-12 -40 -5 -47 14 -14 40 53 40 102 0 25 -12 62 -35 105 -37 70 -45 126 -20
147 8 7 12 16 9 21 -8 13 -20 11 -33 -5z"/>
<path d="M4837 744 c-14 -15 -6 -34 14 -34 14 0 19 5 17 17 -3 18 -20 27 -31
17z"/>
<path d="M5280 725 c-24 -14 -24 -14 -3 -15 12 0 25 5 28 11 11 17 2 18 -25 4z"/>
<path d="M6528 698 c-31 -32 -33 -38 -18 -38 12 0 59 50 60 63 0 13 -15 5 -42
-25z"/>
<path d="M1155 710 c-3 -6 1 -7 9 -4 18 7 21 14 7 14 -6 0 -13 -4 -16 -10z"/>
<path d="M3647 714 c-14 -15 -6 -34 14 -34 14 0 19 5 17 17 -3 18 -20 27 -31
17z"/>
<path d="M973 568 c2 -7 10 -13 17 -13 7 0 15 6 18 13 2 7 -5 12 -18 12 -13 0
-20 -5 -17 -12z"/>
<path d="M3420 558 c0 -43 12 -69 29 -66 9 2 16 9 15 16 -1 6 -2 26 -2 42 -2
23 -7 30 -22 30 -14 0 -20 -7 -20 -22z"/>
<path d="M4705 570 c3 -5 13 -10 21 -10 8 0 12 5 9 10 -3 6 -13 10 -21 10 -8
0 -12 -4 -9 -10z"/>
<path d="M5917 531 c-28 -22 -34 -31 -24 -39 17 -15 87 42 71 58 -8 7 -21 2
-47 -19z"/>
<path d="M5198 534 c-17 -9 -25 -20 -22 -29 5 -12 10 -12 32 2 15 9 28 17 29
18 1 0 -1 6 -5 12 -5 8 -15 7 -34 -3z"/>
<path d="M630 510 c0 -5 5 -10 10 -10 6 0 10 5 10 10 0 6 -4 10 -10 10 -5 0
-10 -4 -10 -10z"/>
<path d="M3152 473 c2 -10 10 -18 18 -18 8 0 16 8 18 18 2 12 -3 17 -18 17
-15 0 -20 -5 -18 -17z"/>
<path d="M5252 440 c-23 -19 -28 -30 -13 -30 16 0 55 37 45 42 -5 4 -19 -2
-32 -12z"/>
<path d="M5466 381 c-7 -11 18 -33 27 -24 4 3 7 12 7 20 0 15 -26 18 -34 4z"/>
<path d="M1725 320 c3 -5 8 -10 11 -10 2 0 4 5 4 10 0 6 -5 10 -11 10 -5 0 -7
-4 -4 -10z"/>
<path d="M6207 310 c-8 -12 -12 -31 -9 -42 5 -20 5 -20 23 3 10 13 19 29 19
36 0 22 -19 23 -33 3z"/>
<path d="M36 305 c-3 -9 1 -18 10 -22 19 -7 39 11 30 26 -10 16 -33 13 -40 -4z"/>
<path d="M4370 255 c-11 -13 -7 -15 24 -15 25 0 36 4 36 15 0 9 -9 15 -24 15
-13 0 -29 -7 -36 -15z"/>
<path d="M6305 210 c-3 -5 -1 -10 4 -10 6 0 11 5 11 10 0 6 -2 10 -4 10 -3 0
-8 -4 -11 -10z"/>
<path d="M5370 201 c0 -10 30 -24 37 -17 3 3 2 9 -2 15 -8 13 -35 15 -35 2z"/>
<path d="M5732 193 c2 -10 10 -18 18 -18 8 0 16 8 18 18 2 12 -3 17 -18 17
-15 0 -20 -5 -18 -17z"/>
<path d="M5787 174 c-14 -15 -6 -34 14 -34 14 0 19 5 17 17 -3 18 -20 27 -31
17z"/>
<path d="M4423 160 c-13 -5 -23 -14 -23 -19 0 -13 53 2 58 17 4 14 -4 14 -35
2z"/>
<path d="M6595 130 c-3 -5 -1 -10 4 -10 6 0 11 5 11 10 0 6 -2 10 -4 10 -3 0
-8 -4 -11 -10z"/>
<path d="M1027 91 c3 -10 16 -24 30 -30 48 -22 42 9 -7 34 -26 13 -28 13 -23
-4z"/>
<path d="M2366 93 c-3 -3 -3 -10 0 -14 7 -12 34 -11 34 0 0 11 -26 22 -34 14z"/>
<path d="M5637 33 c-17 -16 -4 -28 33 -28 43 -1 51 8 21 25 -23 12 -45 13 -54
3z"/>
<path d="M2310 10 c0 -5 7 -10 15 -10 8 0 15 5 15 10 0 6 -7 10 -15 10 -8 0
-15 -4 -15 -10z"/>
</g>
</svg>
